<?xml version="1.0" encoding="UTF-8"?>
<!-- Generator: Adobe Illustrator 22.1.0, SVG Export Plug-In . SVG Version: 6.00 Build 0)  -->
<svg xmlns="http://www.w3.org/2000/svg" xmlns:xlink="http://www.w3.org/1999/xlink" id="Layer_1" x="0px" y="0px" viewBox="0 0 1255.2 358" style="enable-background:new 0 0 1255.2 358;" xml:space="preserve">
<style type="text/css">
	.st0{fill:#FFFFFF;}
</style>
<path class="st0" d="M270.9,69.1c-2.6-1.4-5.2-2.6-7.9-3.6v0.6v4.2c16,7,28.9,18.1,39,32.5c6.3,9,10.7,19.1,10.8,31  c0,1.4,0,2.8,0,4.3h4.6c0.5-8.9-1.6-17.1-4.9-24.8C304,93.2,289.5,79.2,270.9,69.1z M301.1,224.6H295c-3.2,2.5-6.5,5-9.9,7.3  c-7.1,5.1-14.5,9.4-22.1,13.3v3.7c3.3-1.6,6.7-3.3,10-5C283.1,238.7,292.7,232.7,301.1,224.6z M150.6,138h8.1  c3.8-2.1,7.9-4.2,12.2-5.9c1.8-0.7,3.7-1.3,5.5-1.9v-4.7c-4.4,1.4-8.7,3.1-13,5C158.9,132.7,154.6,135.1,150.6,138z M136.6,281.7  c12.9,5.9,26.1,10.1,39.8,12.5V288c-8.3-2-16.6-4.1-24.8-6.5c-13.7-4-25.6-10.9-34.4-22.3c-5.4-7.1-8.6-15.4-11.5-23.9  c-1.2-3.5-2.1-7.1-2.7-10.8h-5.9c1.4,10.7,5.2,20.8,11.2,30.2C115.6,266.3,124.3,276,136.6,281.7z M131.8,140.3L131.8,140.3  L131.8,140.3L131.8,140.3L131.8,140.3z M263,75.6v4.5c14.2,7.4,25.9,18.3,34.8,32.9c3.5,5.7,6,11.9,7.4,18.7c0.4,2,1.8,5-0.8,6  c-2.7,1.1-3-2.4-3.5-4.3c-3-13.2-10-23.6-18.6-32.8c-5.8-6.2-12.2-11.3-19.3-15.3v5.4c17.9,11.1,30.4,28.8,35.8,47.4h10.3  c0.3-3,0.2-5.8-0.6-8.6C301.3,103.9,285.4,86.7,263,75.6z M133.7,108.1c-11,10.5-22.1,20.9-33.2,31.4c-0.4,0.4-0.8,0.8-1.2,1.3  c-1.8,1.9,0.2,4.7,2.5,3.4c0.9-0.5,1.8-1.3,2.6-2c5.9-5.3,11.8-10.5,17.6-16c6.7-6.3,13-13,19.8-19.1c10.3-9.2,22.6-14,34.7-18.9  v-4.6c-6.4,2.6-12.8,5.4-19.1,8.4C148.8,96,140.8,101.4,133.7,108.1z M135.4,122.2c0.1,0,0.2-0.1,0.3-0.2c1.6-1,3-2.5,4.6-3.6  c11.3-8.5,23.6-14.7,36.2-19.6v-5.5c-13.9,5.6-27.2,12.8-39.7,22.3c-1.4,1.1-2.8,2.3-3.7,3.7c-0.1,0.2-0.2,0.4-0.3,0.7  C132.4,121.6,133.9,122.9,135.4,122.2z M134.8,138h7.6c9-7.4,19.3-12.8,30.8-16.4c1.1-0.3,2.1-0.6,3.2-0.9V115  c-1.9,0.6-3.8,1.2-5.6,1.9C157.8,121.9,146.2,129.7,134.8,138z M263.7,224.6c-0.2,0.1-0.5,0.2-0.7,0.3v4.5c3.1-1.5,6.1-3.2,9.1-4.8  H263.7z M279.1,117.5c4.8,6.3,8.4,13.2,10.7,20.6h4.9c-2.2-7.1-5.5-13.7-9.6-19.9c-6.2-9.3-13.5-17-22-22.8v6.4  C268.9,105.9,274.3,111.2,279.1,117.5z M165.8,232.4c3.6-0.5,7.1-1.2,10.6-2v-4.9c-6.7,2-13.4,2.6-20,0.7c-1.4-0.4-2.6-1-3.8-1.6  h-7.8C149.8,231,156.8,233.7,165.8,232.4z M336.4,55.7c5.5,10.5,10.2,21.5,10.4,34.1c0.2,15,1.6,29.7,2.4,44.4  c0.4,7.9,0,15.7-1.3,23.5v20.9c5.4-14.1,7.2-28.9,5.7-44.3c-0.6-6.1-1.9-12-2.7-18.1c-0.4-2.8-0.8-5.8,0.8-8.5  c1.1-1.7,2.5-1.5,2.8-0.1c0,0,1.8,9.1,2.6,13.7c2.7,16.9,2.2,34-2.8,51.3c-1.7,6.1-3.9,11.8-6.4,17.1v14.8c4.5-5.2,8.7-10.9,12.4-17  c11.4-18.8,16.5-38.5,13-59c-0.9-5.2-2.7-10-3.8-15.2c-2.8-12.8-5-25.8-8.1-38.6c-6.5-27.2-18.1-51.4-36.8-71.1  c-1.4-1.5-3.9,0.6-2.9,2.5c0.1,0.2,0.2,0.4,0.3,0.6c3.8,5.6,7.9,10.9,11.4,16.7c7.1,11.7,12.8,24.3,17.5,37.4  c8.6,24.4,14.7,49.4,17.4,75.5c1.3,12.1,0.1,24.5-4.4,36.7c-2.1,5.7-4.9,10.9-8.5,15.7c-1,1.3-2.7,0.4-2.2-1.1  c1.9-5.5,4.5-13.3,5.8-17.8c4.1-13.9,6.4-27.9,4.2-41.5c-1.8-11.2-4.3-22.1-6.8-33.2c-4-17.5-9.9-34.3-18.5-49.7  c-6.7-12-13.4-24-20.1-36.2c-0.5-0.9-1.2-2.3-1.9-3.7c-0.9-1.8-3.6-1.2-3.9,0.9c-0.1,0.8-0.2,1.5-0.2,2.1c0.1,6.1,3,10.9,6.1,15.4  C324.9,33.9,330.7,44.7,336.4,55.7z M176.5,248.9v-4c-1,0.2-2.1,0.3-3.1,0.5c-1.1,0.2-2.3,0.4-3.2,0.1c-0.2-0.1-0.4-0.2-0.6-0.3  c-1.5-0.8-1.2-3.2,0.5-4l0,0c1.2-0.6,2.7-0.7,4-1c0.8-0.1,1.6-0.3,2.4-0.4v-4.6c-2.5,0.5-4.9,1-7.4,1.6  c-13.3,3.2-24.8-2.4-30.1-12.3h-6.9c0.7,1.2,1.4,2.3,2.4,3.5C145.1,241.3,159,248.9,176.5,248.9z M342.7,19.6  c10.2,13.4,16.9,28.8,20.9,45.6c3,12.6,5.3,25.5,8,38.2c3.1,14.4,6.2,28.8,9.4,43c0.2,1.1,0.7,2.1,1.2,3c5.4,10.3,4,21-2.1,32.1l0,0  c-3,4.4-0.9,5.5,1.2,3.3c3.8-4.1,6.1-5.9,9.2-7.9c2.8-1.8,4.9-1.2,6.9,0.9c1.4,1.5,3,2.8,4.6,3.9c3.3,2.3,5-0.2,3.1-1.9  c-8.6-7.5-13.8-17.2-16.6-28.5c-3.8-15.2-7-30.9-10.4-46.5c-3.4-15.8-6.3-32-11.2-47.4c-6-18.7-15-35.5-27.4-50  c-1.2-1.4-2.6-4-5-1.6c-2.1,2.2,0,3.9,1.1,5.3C337.8,14,340.4,16.6,342.7,19.6z M423.4,122.4C423.4,122.4,423.4,122.5,423.4,122.4  c1.1,1.2,3.1-0.4,2.7-2l-0.2-0.8c-4.3-7.2-9.3-13.9-12.8-21.7c-4-9-6.5-18.9-9.7-28.5l0,0c-0.3-0.9-1.5-0.5-1.5,0.5  c-0.1,9.1,1.1,17.7,3.9,25.9C409.4,106.6,416.2,114.8,423.4,122.4z M175.5,269c0.3,0,0.6,0,0.9-0.1v-5c-10.6,0.7-20.6-1-29.6-6.3  c-5.2-3.1-9.9-7.1-14.7-10.8c-1.5-1.1-3-4.1-0.6-4.9c1.3-0.5,2.8,0.6,3.9,1.4c2.6,1.9,4.9,4.3,7.6,6.2c10.1,6.9,21.4,9.4,33.4,9v-5  c-14.3-0.3-27.3-4.9-39.4-14.4c-5.2-4.1-8.5-9.1-10.4-14.4h-7.4c1.1,7.2,3.7,14,7.5,20.6C137.3,263.2,154.2,270.3,175.5,269z   M271.1,128.7c0.8-0.8-0.9-3.4-1.9-4.5c-2-2.1-4.1-4.1-6.2-6v5.5c1.7,1.4,3.4,2.8,5.1,4.1C268.9,128.3,270.5,129.3,271.1,128.7z   M266.8,138h5.9c-0.6-0.8-1.3-1.6-2-2.4c-2.4-2.7-5-5.2-7.6-7.5v5.6C264.3,135.1,265.6,136.5,266.8,138z M287.3,224.6H281  c-5.9,3.6-11.9,6.9-18,10v5.3c2.3-1.2,4.7-2.5,7-3.8C276,232.7,281.7,228.7,287.3,224.6z M169.2,138h7.3v-2.5  C174,136.3,171.6,137.1,169.2,138z M280.1,138h5.2c-1.9-5.5-4.6-10.8-8-15.8c-4.2-6.1-8.9-11.4-14.2-15.8v5.7  C270.4,118.6,276.4,127.2,280.1,138z M147.7,270c-19.4-8.8-30-24.5-33.5-45.4h-5.7c1.5,11.8,6.6,22.3,13.5,31.8  c10.3,14,25.2,20.6,42.4,23.5c4,0.7,8.1,1.5,12,2.6V274c-0.7,0.1-1.4,0.1-2.1,0.2C164.9,274.9,156,273.7,147.7,270z M402.4,231.7  c-4.2-1.1-8.7-1.1-13.2-0.6c-12.2,1.4-23.7,7-35.2,13.1c-9.5,5.1-19,10.4-28.6,15.3c-5.9,3-12.2,5.1-18.3,7.7  c-1.4,0.6-2.9,1.1-4.2,2.3c-0.9,0.9-0.5,2.3,0.6,2.2c1.1,0,2-0.1,3-0.4c4.9-1.7,9.7-3.5,14.6-5.4c12.9-5.1,24.9-12.3,36.9-19.3  c12.5-7.1,25.1-12.5,38.5-13.2c1.9-0.1,3.8-0.4,5.8-0.7C402.8,232.8,403,231.9,402.4,231.7z M386.7,247.9c-1.1-0.2-2.4,0.2-3.6,0.4  c-14.3,2.2-28,8.2-42,13.9c-10.6,4.3-21.2,8.9-32.1,12.3c-9.2,2.8-18.7,3.9-28.1,6c-6,1.4-11.9,2.7-17.9,4.1v4.7  c5.1-1.1,10.2-2.1,15.2-3.2c18.3-3.8,36.4-8.2,54.1-15.3c10.3-4.1,20.6-8,30.8-11.7c7.8-2.8,15.7-5.2,23.5-7.8  c0.1,0,0.2-0.1,0.3-0.1c1.1-0.6,1.3-2.3,0.4-3C387.1,248.1,386.9,248,386.7,247.9z M393.3,238.8c-8.5-0.6-22.8,3.5-30,8.4  c-1.4,1-0.8,3.1,0.7,2.7c9.8-2.2,19.6-3.7,29.3-7.9C394.9,241.3,394.9,238.9,393.3,238.8z M370.3,262.2L370.3,262.2  c-6.5,1.9-13.1,3.5-19.5,5.8c-15.1,5.5-30,12.1-45.7,16.2c-14,3.7-28,7-42.1,9.8v4.1c20-3.2,39.7-3,59.2-4.8  c3.5-0.3,6.9-0.1,10.3-2.2c0.7-0.4,1.6-1.2,1.5-2.1c-0.1-2.3-2.9-2-4.2-1.8c-7.9,1.3-15.8,2.7-23.8,3.9c-1.7,0.3-4.7,0.3-4.9-1.3  c-0.1-1.9,2.6-2,5-2.3c5.5-0.7,10.5-1.5,15.5-3.3c16.1-5.9,32-12.2,47.7-18.4c0.5-0.2,1.1-0.7,1.7-1.3  C372.3,263.5,371.6,261.8,370.3,262.2z M349.4,277.5c-3.3,0.1-4.7,1.5-7,2.4c-1.2,0.5-3,1.3-5.1,2c-0.8,0.3-0.8,1.4,0,1.7  c4.3,1.2,10.9,0,13.4-2.7c0.1-0.1,0.1-0.2,0.2-0.3C351.8,279.2,351.4,277.4,349.4,277.5z M309.5,298.9c-8.3,0.5-16.7,1.1-25.1,1.5  c-7.1,0.4-14.3,0.9-21.5,1.8c-0.1,0-0.1,0-0.2,0c-1.2,0.2-2.4,0.3-3.7,0.5c-0.4,0.1-0.8,0.1-1.2,0.2c-1,0.2-1.9,0.3-2.9,0.5  c-0.4,0.1-0.8,0.1-1.2,0.2c-1.3,0.3-2.6,0.5-3.9,0.9c-8.4,2-17,4.4-25.4,5c-1.9,0.1-3.7,0.3-5.6,0.3c-0.6,0-1.2,0-1.7,0.1  c-1.3,0.1-2.6,0.1-3.9,0.1c-0.6,0-1.3,0-1.9,0c-1.3,0-2.6,0-3.9,0c-0.6,0-1.2,0-1.7,0c-1.8,0-3.6-0.1-5.4-0.1h-0.1  c-1.8-0.1-3.7-0.2-5.5-0.3c-0.6,0-1.2-0.1-1.7-0.1c-1.3-0.1-2.5-0.2-3.8-0.3c-0.6-0.1-1.3-0.1-1.9-0.2c-1.3-0.1-2.5-0.2-3.8-0.4  c-0.6-0.1-1.1-0.1-1.7-0.2c-1.7-0.2-3.5-0.4-5.2-0.6c-0.1,0-0.1,0-0.2,0l0,0c-9.5-1.2-18.9-3-28.3-5.1  c-27.1-6.2-46.7-21.9-56.4-48.8c-0.2-0.6-1.8-4-3.4-3.6c-4.1,1.1-1.8,5.7-1.2,6.9c1.5,3.3,3.6,6.2,5,9.6  c5.8,13.5,15.6,23.3,27.8,30.6c15.4,9.3,32.8,13.5,51.1,14.8c20.3,1.4,40.4,2.4,60.5,2.6c18.3,0.2,36.1,3.1,54.7-0.2  c7.3-1.9,3.9-4.3,2.5-4.3c-4.4,0-8.9,0.1-13.3,0.3c-7.8,0.2-15.6,0.6-23.4,0.7c-0.5,0-1-0.1-1.6-0.3c-1.4-0.5-1.1-2.7,0.5-3.1l0,0  c2.5-0.5,5-0.9,7.4-1.1c11.7-0.8,23.4-1.4,35-2.3c5.5-0.4,11.1-1.4,16.6-2.2c2-0.3,4.7-0.3,4.6-2.3  C314.4,298.3,311.2,298.9,309.5,298.9z M423,176.6c1.2,1,2.8-0.4,2-1.7c-1.1-1.8-2.1-3.5-3.4-5.2c-6.9-9.2-14.8-26.5-18.2-33.8  c-0.5-1.1-2.3-0.5-2,0.7C406.2,159.4,416.7,171.4,423,176.6z M424.8,155.1c-3.3-9.1-8.8-16.6-14.4-24c-9.9-13.2-16.2-28.5-18.9-46.2  c-1.9-12.4-3.8-25-6.3-37.3c-1.7-8.1-4.4-15.8-6.8-23.6c-0.5-1.5-1.3-2.7-2.4-3.5c-1.4-1-3.9-0.5-2.3,3.7c2.6,6.7,7.6,20.3,8.8,29.3  c1.8,14,3.7,28,6.3,41.6c2.4,13,7.2,24.8,15.4,34.1c5,5.7,8.4,12.4,11.1,19.7c2.3,6.4,5.3,12.2,9.8,16.9c2,2.1,2.3,1,2-1.2  C426.5,161.7,425.6,157.5,424.8,155.1z M428,141.4c-2.2-7-6.7-12.2-10.8-17.8c-3.8-5.2-7.7-10.4-10.7-16.3  c-5.6-10.9-7-23.7-8.8-36.3c-1.4-9.7-3.1-19.4-5.1-28.9c-0.3-1.4-0.7-2.8-1.7-4.8c-1-2.1-2.8-1.3-2.5,1.1c1.2,9.2,4.1,32.1,6,44.4  c1.5,9.5,4.2,18.7,8.7,26.7c7.6,13.3,15.6,26.1,23.4,39c0.7,1.1,2.4,0.2,2.3-1.2C428.8,145.2,428.5,142.8,428,141.4z M259.7,320.3  c-11.1-0.2-22.4-0.3-33.7-0.6c-20.9-0.5-42.2-0.5-63.1-3.3c-17.5-2.3-34.4-6.6-49-16.1c-10.7-6.9-20-15.5-25.1-27.7  c-6.4-15.5-10.3-32-11.3-49.6c-0.8-14,0.6-28,5.8-41.9c6.2-16.4,18-28.3,31.9-38.2c15.9-11.2,32.7-20.3,49.7-28.8  c3.8-1.9,7.7-3.5,11.6-4.8v-5c-12.4,4.7-24.5,10.3-35.5,18.9c-1.8,1.4-4.1,2.6-6.2,2.9c-3.5,0.5-6.5,2-9.4,4.2  c-6.3,4.7-12.6,9.5-19.1,13.9c-13.8,9.5-24.1,21.6-29.5,37.4c-3.1,9.2-4.7,18.6-5.1,28c-0.7,16.2,1.7,31.7,5.9,46.7  c2.8,9.9,5.6,19.7,11.6,27.8c14.5,19.6,33.7,32.1,59.1,34.6c33,3.3,65.7,5.6,98,6.6c2.3,0.1,4.5,0.1,6.8,0.2c5,0.1,9.3-0.6,11.3-2.8  C265.7,321.2,262.5,320.4,259.7,320.3z M412.2,216.5c-3.2-2-10.1-4.3-22.4-1c-12.6,2.3-24.2,8.7-35.7,15.8  c-11.8,7.3-23.6,14.9-35.7,22c-16.6,9.8-34.2,16.4-52.4,20.8c-1,0.2-2.1,0.5-3.1,0.8v4.7c3.7-0.9,7.4-1.7,11.1-2.6  c9-2.1,17.7-5.3,26.1-10c6-3.4,12.4-6.1,18.5-9.1c2-1,4-1.9,6-3c6-3.4,11.8-7.3,17.9-10.2c6.5-3.1,13.2-5.4,19.8-7.6  c10.4-3.5,20.7-6.9,31-9.8c4.5-1.3,9.1-1.9,13.8-2.7c0.8-0.1,1.1-1.4,0.3-1.6l0,0c-9.1-3-18.6-1.3-28.1,2.7  c-8,3.3-15.9,7.5-23.9,11.3l0,0c-1,0.5-1.7-0.9-0.7-1.6c17.9-14.7,37.2-17.8,56.8-17C412.4,218.2,412.9,216.9,412.2,216.5z   M424.9,187.4c-3.5-3.7-7.1-7.3-10.6-11c-5.4-5.6-10.5-11.6-13.1-19.6c-1.6-4.9-2.6-10.1-4.1-15c-3.1-10.1-6.6-20.1-9.6-30.3  c-4.4-14.9-5.7-31-8-46.9c-2-14.1-5.3-27.7-10-40.9c-1.4-3.9-3.5-7.3-6.7-10.1c-1.6-1.4-3-0.5-2.5,2c0.3,1.5,2.7,6.1,4.9,9.8  c2.2,3.7,3.9,7.3,5.6,10.7c3.6,7.3,0.3,8.3-2.4,3.2c-6-11.4-9.8-17.7-13.9-24.6c-1.9-3.2-5.7-9.5-7.4-8.4c-1.7,1,2.2,10.1,4.9,14.3  c3.6,5.5,7.6,10.6,11,16.2c8,12.6,11.7,27.2,14.5,42.2c2.9,16.2,5.7,32.4,10.4,47.7c2.8,9,5,18.3,7.6,27.3c1,3.6,2.1,7.2,3.9,10.2  c3.3,5.4,6.9,10.5,10.7,15.4c3.5,4.5,7.9,8,13.3,9.9C424.6,190,425.8,188.4,424.9,187.4L424.9,187.4z M414,191  c-4.6-1.8-9.5-3.3-14.2-5.1c-1.5-0.6-2.9-1.8-3.9-3.1c-2.6-3.2-4.3-3.3-7.6,0.2c-0.9,0.9-1.7,1.9-2.5,2.9  c-4.4,4.5-8.6,9.1-13.2,13.3c-2.9,2.6-6.1,4.6-9.6,6c-1.7,0.7-2.8-1.5-1.4-2.8c2.2-2.3,3.7-6,6.5-6.8c3.1-0.9,4.6-3.7,2.1-5.3  c-0.4-0.2,0.3-1.4,0.6-2c1.2-2.6,2.5-5.1,3.6-7.7c1.6-3.8,3.4-7.5,4.6-11.4c0.7-2.2,0.3-4.7-0.3-6.8c-0.4-1.5-2.6-1.1-2.9,0.6  c-1.8,9.4-5.6,18.3-10.9,26.7c-12,19-28,33.6-46.5,44.9c-10.5,6.4-21.9,11.1-32.9,16.7c-1.7,0.8-3.3,1.8-5,2.8  c-2.5,1.4-2.2,3.4,0.6,2.9c1.6-0.3,3.2-0.7,4.8-1.4c3.7-1.7,7.3-3.6,10.9-5.3c10.2-4.8,20.5-9.2,29.9-16c10.3-7.4,20.4-15,30.7-22.2  c9.2-6.4,18.8-11.4,29.2-13.4c5.8-1.1,11.5-1.4,17.4-0.1c2.7,0.6,1.2,0.9-0.1,0.9c-14.8,0.5-28.9,5.8-42.7,14.2  c-11.8,7.2-22.6,16-33.2,25.2c-1.7,1.4-3.4,2.7-5.3,3.7c-4.8,2.6-9.6,5.2-14.6,7.4c-8,3.6-16.1,7.2-24.4,10.1  c-4.9,1.7-10.1,1.6-15.1,3.1c-1.8,0.6-3.6,1.1-5.4,1.7v4.7c6.4-1.7,12.7-3.5,19-5.4c16-4.8,31.2-12.2,45.8-21.2  c13.1-8.1,26.1-16.4,39.8-22.7c13.7-6.3,27.4-10.2,41.3-9.5c2.2,0.1,4.4,0.3,6.6,0.6c0.5,0.1,0.9-0.8,0.4-1  c-8.5-4.2-20.4-3.2-30.6-0.4c-8.8,2.4-16.8,6-25.8,9.9c-0.9,0.4-2,0-0.4-1.3c7.1-6.1,14.8-9.7,23.2-11.8c12.8-3.2,25.1-3,37.2-1.7  l0,0c0.8,0.1,1.3-1,0.7-1.5c-8.8-7.1-19.5-9.9-31.7-10.2c-1.4,0-1.9-0.6-0.4-1.5c5.7-3,11-2,16.2-0.2c4.6,1.6,9.1,3.4,13.7,4.8  c2.1,0.6,6.4,2.2,6.8,0.9C425.4,195.4,417.9,192.5,414,191z M346.5,206L346.5,206L346.5,206z M240.7,330.8L240.7,330.8  c-1.3-0.4-2.6-0.5-4-0.6c-13.5-0.6-27.2-0.8-40.8-1.9c-15.9-1.3-31.8-3.4-48-5.1l0,0c-1.6-0.1-2.8,1.8-2,3.1  c0.1,0.3,0.3,0.5,0.5,0.7c0.5,0.6,1.5,0.8,2.3,1c5.7,1.2,11.2,3.1,17,3.5c21.8,1.6,43.4,2.8,64.8,3.9c3.2,0.2,9.2-0.4,10.5-1.5  C242.1,332.7,241.8,331.2,240.7,330.8z M266,24.7c-5.8,3.1-11.9,5.6-17.9,8c-9.2,3.6-18.7,6.1-27.7,10.2c-4.9,2.3-9.8,4.7-14.7,7.1  h4.8c9-4.4,18.4-7.3,27.9-9.9c10.1-2.8,20.2-5.2,29.6-10.5c10.3-5.8,16.8-14.2,17.6-26.5l0,0c0.1-1.4-1.8-1.6-2.3-0.3l-0.3,1  C280.1,12.7,274,20.3,266,24.7z M284.3,25.2L284.3,25.2c-0.1,1.2-0.1,2.3,0,3.4c0.1,1.6-1.4,2.9-2.8,2.5c-6.2-1.7-6.7-1.7-9.9,0  c-2,1.1-5,2.9-7.5,4.6c-1.5,1-1.1,3.3,0.6,3.4c6.9,0.5,13.4,1.9,18.5,6.8c0.9,0.8-0.2,2.4-1.3,1.9l0,0c-13.9-6.5-28.7-7.9-44.4-3  c-4.9,1.5-9.7,3.3-14.6,5.2H234c3-0.8,6-1.5,9-2.1c15.7-2.7,30.6-1.6,43.5,6.7c9.3,6,15.6,15,22,23.8c1.3,1.8,2.2,3.9,3.1,5.9  c0.8,1.8,1.2,3.7,1.1,5.7c-0.1,1.2-1.5,1.9-2.3,1.1c-3.6-4.2-7.1-8.6-10.3-13.1c-5.2-7.3-10.3-14.9-17.5-20.2  c-2.8-2.1-6-3.8-9.2-5.3c-0.6-0.3-1.4-0.4-2.3-0.4c-1.1,0-1.8,1.5-1,2.3c2.1,2.1,4.7,3.1,7,4.4c2.9,1.6,5.7,3.6,8.4,5.6  c0.1,0.1,0.2,0.2,0.2,0.3c0.6,1.3-0.9,2.8-2.1,2.2c-0.1,0-0.1-0.1-0.2-0.1C277.6,63.6,272,60,266,57c-1-0.5-2-1-3-1.4v4.8  c1.3,0.5,2.6,1,3.9,1.6c15.7,7.6,29.4,17.5,40,31.4c8,10.5,13.8,22.2,14.7,36.4c0.2,2.8,0.3,5.5,0.3,8.3h4.1c0-3.5-0.1-7-0.3-10.5  c-0.3-5.7-2.3-11.1-3.4-16.7c-1.2-6.2-2.3-12.5-3.3-18.8c-1.5-9.5-5.7-17.4-11.6-24.2c-5.6-6.5-11.5-12.7-17.3-19  c-0.9-1-7.5-8.3-10.7-9.3c-0.7-0.2-1.3-0.4-2-0.7c-1.1-0.4-0.7-2.2,0.5-2.2c1.8-0.1,3.8,0,5,0.4c2.9,1.1,5.7,2.8,8,4.9  C303,52.8,314,64.5,321.1,79.4c1.6,3.3,2.3,7.3,3,11.1c2.6,15.8,5.5,31.5,6.3,47.6h5.2c-0.3-5.6-1.1-11.1-2.1-16.6  c-2.2-11.9-3.6-24.1-6.4-35.9c-3.5-15.1-9.8-28.8-18.8-40.9c-7.4-10-11.8-21.7-12.3-35.2c-0.1-2.3,0-4.6,0.1-6.9  c0.1-2-2.3-2.7-3.4-1c-0.3,0.4-0.5,0.8-0.7,1.3c-1.9,3.9-2.2,8-1.8,12.2c0.8,7.9,4.4,14.4,7.8,21c0.6,1.2,1.2,2.4,1.9,3.6  c0.7,1.4-0.9,3.2-2.2,2.4c-2.2-1.3-3.7-3.2-4.7-5.5c-1.8-4-2.9-8.3-4.6-12.3c-0.1-0.1-0.1-0.3-0.2-0.4  C287.1,22.2,284.5,23.1,284.3,25.2z M89.3,240.6c2.7,6.3,6.7,12,9.8,18.1c4,8.1,9.1,15.3,15.8,21.1c14.3,12.5,31.4,19.4,50.9,21.2  c3.7,0.3,7.2,0.8,10.7,1.7v-3.6c-3.8-1-7.7-2.1-11.6-2.8c-15.7-2.7-30.2-8.1-42.6-17.7c-8.2-6.3-14.1-14.5-19.7-23.3  c-11.2-17.5-14.8-37.2-9.2-59.2v-21.6C82,196,81.1,221.6,89.3,240.6z M289,245c9.5-5.1,19.3-9.4,28.4-15c2.8-1.7,5.6-3.5,8.2-5.4  h-7.3c-4,2.8-8.4,5.3-13,7.6c-14.1,6.8-28.1,14.2-42.4,21.2v6.1c2.6-1.2,5.2-2.5,7.7-4C276.8,251.9,282.8,248.3,289,245z   M315.9,43.5c7.9,14.3,13.6,29.6,17.7,45.8c3.6,14.1,5.1,28.8,6.5,43.4c0.2,1.8,0.3,3.6,0.3,5.4h4.5c-0.1-4.8-0.4-9.5-0.8-14.3  c-1.9-21-4.9-41.7-12.2-61.2c-3.6-9.6-7.6-18.9-13.7-27c-6.1-8.2-10.4-17.7-12.5-28.5c-0.4-1.9-0.7-3.8-0.9-5.8  c-0.2-1.6-2.2-1.9-3-0.5c-0.3,0.5-0.5,1.2-0.7,2c-1.9,8.8,0.2,16.5,4.1,23.5C308.4,32.3,312.6,37.6,315.9,43.5z M176.2,350.6  c-2.3-1.6-5.8,0.1-11.5-0.4c-8.9-0.8-14.2-4.1-22.3-7.2c-19-7.4-35.8-18.6-52.1-30.9c-6.1-4.6-11.3-10.2-15-17  c-3.3-6.1-7-12.1-10.2-18.4c-3-5.8-6.2-11.7-8.2-18C46.3,224.8,51,190.5,69,156.4c7.6-14.4,17.5-27.1,31.3-36.4  c4.8-3.2,9.2-7.1,13.5-11.1c7.4-6.9,14.4-14.2,21.7-21.1c4.6-4.3,9.7-7.5,15.6-9.5c6.3-2.1,12.6-4.4,18.8-6.9  c2.2-0.9,4.4-1.8,6.5-2.7v-3.8c0.2-0.1,0.3-0.2,0.5-0.2c-1.6,0.8-3.2,1.6-4.8,2.4c-2.2,1.1-4.5,2-6.9,2.9c-1.2,0.5-1.9-1.2-0.9-1.9  l0,0c6.9-4.7,13.6-9.8,20.7-14c16.7-9.7,34.3-16.7,52.2-22.2c8.1-2.5,16.2-4.9,23.9-8.4c7.6-3.4,12.5-9.5,13.9-18  c0.2-1.4-1.4-2.2-2.4-1.2c-0.5,0.5-1,1.1-1.4,1.6c-1.6,2.2-2.8,4.8-4.6,7c-6,7.4-14.1,11-22.5,13c-15.2,3.7-30.2,9-44.5,16.5  c-10.3,5.4-20.5,11.2-30.7,17.1c-23.5,13.5-45,30-62.9,51.4c-1.1,1.3-2.5,2.5-4,3.5c-0.6,0.4-1.7,1-2.4,0.2  c-0.7-0.8-0.2-1.8,0.1-2.4c1.5-2.4,3-4.7,4.7-6.9c8.9-11.5,19.8-20.9,31.1-29.7c21.4-16.6,43.8-30.7,68.6-39.2  c6.4-2.2,12.7-4.7,18.9-7.2c7.3-3,14.4-6.4,20.6-11.7c0.8-0.7,1.8-1.8,2.8-2.9c1.4-1.6-0.2-3.8-2-2.8c-0.1,0.1-0.2,0.1-0.3,0.2  c-12.2,7.6-25,13.7-38.1,19.2c-2.1,0.9-4.2,1.7-6.4,2.6c-1.8,0.7-3.4-1.5-2-2.9c0.4-0.4,1-0.7,1.8-1c5.2-1.5,12.6-3.5,21.8-10.4  c1.4-1,0.8-3.2-0.9-3.1c-2.2,0.1-4.3,0.2-6.3,0.8c-9.4,2.6-16.7,9.1-24.1,15.8c-6,5.6-12.6,9.9-19.5,14  c-17.7,10.6-35,21.9-51.1,35.6c-7.4,6.3-14.6,13.1-19.6,21.5c-5.7,9.5-12.2,18.4-19.4,26.9c-11.5,13.7-21,29-27.8,45.3  c-11,26.5-14.4,52.4-3.1,77c5.4,11.8,11.1,23.4,16.6,35c2.4,4.9,4.9,9.7,7.1,14.7l0,0c1,2.2-2.1,4.5-3.9,2.9c-1.8-1.7-3.2-3.7-4.3-6  c-7-15.9-14.4-31.8-21.7-47.9c-8.4-18.5-9-38.3-3-59.3c6.4-22.5,18.2-42.4,33.9-60.6c6.5-7.5,12.2-15.6,18.1-23.5  c3.9-5.3,7.3-11,11.4-16.1c11-13.6,24.8-23.7,38.9-33.3c12.2-8.3,24.4-16.5,36.6-24.7c7.7-4.7,8.5-8.8-5.9-0.4  c-8.6,5.2-17.3,10.4-25.7,16c-9.2,6-18.3,12.3-27.2,18.8c-10.5,7.7-18.8,17.7-25.8,28.7c-6.2,9.6-13.1,18.8-20.7,27.4  C56,145.1,43,167.5,35,192.3c-8.2,25.4-7.8,49.2,5.2,70.7c5.5,9.1,10.3,18.5,15.2,27.8c2.6,5,4,10.9,7.4,15.1  c6.4,8,13.4,15.4,20.7,22.4c11,10.7,25.1,16.9,38.6,23.6c0.8,0.4,1.6,0.6,2.5,0.7c3.1,0.2,4.6-2.6,0-5c-2.5-1.4-5.2-2.6-7.7-4  c-12.6-6.9-25-14.4-35.1-24.8c-1.6-1.7-3.1-3.5-4.3-5.4c-0.1-0.2-0.2-0.4-0.2-0.6c-0.1-1.5,1.5-2.8,2.8-2.3c0.1,0,0.2,0.1,0.2,0.1  c2.9,2.1,5.7,4.2,8.4,6.5c16.3,14.5,35.3,24.5,55.2,32.9c20.9,10,27.8,7.2,32.7,5C178.2,354.3,178.5,352.2,176.2,350.6z M90.8,341.7  c-1.1-0.9-2.5-1.5-3.7-2.4C71,326.4,57,311.4,48.4,291.7c-4.9-11.1-9.7-22.3-14.8-33.4c-2.5-5.6-5.9-10.8-8.2-16.5  c-7.2-17.8-6-36.6,0.6-55.9c1.3-3.7,2.9-7.4,4.5-11c0.7-1.5,2.9-1,2.5,0.6c-0.1,0.5-0.2,1-0.4,1.4c-1.6,4.8-3.5,9.5-5.1,14.2  c-0.8,2.3-1.4,4.7-1.7,7.1c-0.2,2,2.6,2.4,3.2,0.5c0.1-0.2,0.1-0.4,0.2-0.6c4.1-11.7,7.9-23.5,12.2-35.2c4.2-11.3,10-21.8,19.4-30.2  c9.2-8.2,17.4-17.3,24.1-27.5c9-13.7,18-23.7,27.8-37.5c4.9-6.1,6.1-6.3,9.6-7.5c21-6.3,25.7-17.6,21.2-17.3  c-4.6,0.2-21.5,9.1-36.1,24.9c-7.7,6.6-14,14.6-19,23.4c-8,14-17.6,26.9-29.6,37.8c-22,19.9-35.2,44.2-40.7,72  c-3.7,18.8-2.4,36.7,5.6,53.1c6.9,14.1,13.7,28.1,20.3,42.2c7,15.1,16.3,28.4,28.1,39.6c5.5,5.2,10.4,7.9,16.8,9  C90.9,345,92.1,342.8,90.8,341.7L90.8,341.7z M253.4,19.5c4.3-2.3,9.8-7.7,11.6-11.8c0.4-0.9-0.3-1.8-1.3-1.8  c-4.5,0.4-9.4,4.8-12.4,11.5C250.7,18.8,252.1,20.2,253.4,19.5z M205.4,338c-10-0.4-20.1-0.5-30.3-0.4c-13.8,0.1-26.6-2.2-37.9-9.2  c-8.8-5.5-17.8-10.7-26.7-16.2c-9.5-5.9-18.4-12.6-24.4-22.3c-3.3-5.2-5.8-11-8.8-16.4c-5.1-9-8.7-18.7-10.5-29.2  C62,215.8,67.2,187.6,81,160c6.5-13.1,14.7-24.9,26.2-34.4c7.2-6,14.1-12.4,21.2-18.5c3.9-3.4,7.5-7.3,11.8-9.8  c11.3-6.5,22.7-12.8,34.3-18.1c0.7-0.3,1.3-0.6,2-0.9V73c-19.4,7.1-37.2,17.7-53,32.6c-8.8,8.3-18.1,16-27.1,24.1  c-2.1,1.9-4.2,4-6,6.2c-12.7,14.6-21.3,31.2-26.5,49.4c-8.2,29-7.5,56.6,3.8,82.2c2.6,5.9,6.4,11.2,9.3,16.9  c4.3,8.4,9.6,15.9,16.7,21.8c13.7,11.5,28.6,21.2,44.8,28.7c12,5.6,24.9,8.2,38.8,7.7c7.7-0.3,15.3,0.3,23,0.4  c5.1,0,14.6,0.8,16-2.9C216.7,337.9,208.9,338.1,205.4,338z M2.7,237.5c-0.9-2.2-2.3-0.8-2.4,0.3c-0.6,4.2-0.4,8.1,0.8,12.7  c2.5,9.4,9.2,16.6,9.2,16.6c0.9,1.2,2.9,0,2.4-1.4C9.8,256.9,6.2,246.4,2.7,237.5z M42.6,307.1c-6.4-9.9-12.2-20.1-16.8-31.2  c-8.3-20.5-13.3-42.2-12.2-65.7c1.2-25.9,9.7-49.7,28.8-70c9.6-10.1,19.4-20,28.9-30.1c0.4-0.4,0.7-0.9,1-1.6c0.9-2-1.5-3.6-3.1-2.1  l0,0c-5.6,5.7-11.1,11.5-16.7,17.1c-4,4-8.3,7.7-12,12C20.1,159.3,10,186.4,8,215.8c-1.3,18.1,1.6,35.1,10.7,49.9  c2.7,4.4,3.8,9,4.2,14.1c0.3,4,1.4,8,3.1,11.4c4.2,7.9,8.9,15.5,13.5,23.1c0.2,0.4,0.8,0.8,1.5,1.3c2.1,1.4,5.1-1.1,4.1-3.4  C44.4,310.4,43.6,308.7,42.6,307.1z"></path>
<path class="st0" d="M777.8,243.2l-12.7-31.7h-4.9l-12.8,31.7h5.1l3.4-8.7h13.3l3.5,8.7H777.8z M757.5,230.2l5.1-13l5.2,13H757.5z   M827.1,243.2v-31.6h-4.7V235l-17.6-23.4h-4.4v31.6h4.7v-23.4l17.6,23.4L827.1,243.2L827.1,243.2z M859.4,243.2v-4.4h-17.6v-10h14.7  v-4.4h-14.7V216h17.6v-4.4h-22.3v31.6L859.4,243.2L859.4,243.2z M899.6,243.5l9.5-31.9h-5l-4.7,16.6l-2.3,8.5l-2.2-7.9l-4.9-17.2  h-4.7l-4.8,16.8l-2.2,8.2l-2.2-8.2l-4.9-16.9h-5l9.4,31.9h5.2L887,222l0.6-2.2l0.6,2.2l6.2,21.4L899.6,243.5L899.6,243.5z   M957.2,243.2l-12.3-18.9l11.3-12.7h-6.1L937,226.7v-15.1h-4.7v31.6h4.7v-10.1l4.8-5.1l9.9,15.2L957.2,243.2L957.2,243.2z   M968.4,243.2v-31.6h-4.7v31.6H968.4z M1005.5,243.2v-31.6h-4.7V235l-17.6-23.4h-4.4v31.6h4.7v-23.4l17.6,23.4L1005.5,243.2  L1005.5,243.2z M1028.8,243.2c9.6,0,14-7.9,14-15.8c0-7.9-4.3-15.8-13.9-15.8h-12.8v31.6H1028.8z M1020.8,238.8V216h8  c6.7,0,9.1,5.9,9.1,11.4s-2.4,11.4-9.2,11.4L1020.8,238.8L1020.8,238.8z"></path>
<g>
	<polygon class="st0" points="576.9,173.8 542.8,128.4 542.8,173.8 535.1,173.8 535.1,115.3 542.5,115.3 576.6,160.7 576.6,115.3    584.2,115.3 584.2,173.8  "></polygon>
	<polygon class="st0" points="642.7,173.8 642.7,166.6 609.4,166.6 609.4,146.6 637.3,146.6 637.3,139.4 609.4,139.4 609.4,122.4    642.7,122.4 642.7,115.3 601.7,115.3 601.7,173.8  "></polygon>
	<polygon class="st0" points="709.1,173.8 686.8,144.1 708.2,115.3 698.5,115.3 682,138 665.1,115.3 655.4,115.3 676.7,143.8    654.5,173.8 664.1,173.8 681.7,150.1 699.5,173.8  "></polygon>
	<polygon class="st0" points="748.1,173.8 748.1,122.4 769,122.4 769,115.3 719.3,115.3 719.3,122.4 740.3,122.4 740.3,173.8  "></polygon>
	<path class="st0" d="M837.1,115.3h-22.3v58.5h7.8v-18.6h14.5c12.9,0,19.8-10.4,19.8-20.2C856.8,122.8,849.3,115.3,837.1,115.3z    M836.7,148h-14.2v-25.6h14.1c7.9,0,12.2,4.5,12.2,12.5C848.7,142.6,843.7,148,836.7,148z"></path>
	<path class="st0" d="M904,148.7c7.4-2,11.9-8,11.9-16.2c0-11.3-7-17.3-20.2-17.3h-23.4v58.5h7.8v-23.9h12.8c1.2,0,2.3,0,3.5-0.1   l11.6,24h8.1v-1.2L904,148.7z M895.7,142.8H880v-20.3h15.7c5.6,0,12.2,1.8,12.2,10.1C907.9,139.3,903.8,142.8,895.7,142.8z"></path>
	<path class="st0" d="M960.1,115h-8.4L928,173.8h8.4l6.5-16.4h25.9l6.6,16.4h8.3L960.1,115z M945.3,150.4l10.5-26.7l10.7,26.7H945.3   z"></path>
	<path class="st0" d="M1019.2,174.8L1019.2,174.8c14.8,0,24.4-7.6,25.4-20.2V154l-7.3-1.2l-0.1,0.6c-1,8.7-7.9,14.1-17.9,14.1   c-9,0-19.4-6.1-19.4-23.2c0-16.9,9.7-22.9,18.8-22.9c7.1,0,16,2.3,17.4,13.5l0.1,0.6l7.4-1.4l-0.1-0.5   c-1.2-12.5-10.1-19.4-24.9-19.4c-16.6,0-26.9,11.5-26.9,30.1C991.9,166.7,1005.9,174.7,1019.2,174.8L1019.2,174.8z"></path>
	<polygon class="st0" points="1083.5,173.8 1083.5,122.4 1104.5,122.4 1104.5,115.3 1054.7,115.3 1054.7,122.4 1075.8,122.4    1075.8,173.8  "></polygon>
	<rect x="1119.2" y="115.3" class="st0" width="7.8" height="58.5"></rect>
	<path class="st0" d="M1171.9,174.8L1171.9,174.8c14.8,0,24.4-7.6,25.4-20.2V154l-7.3-1.2l-0.1,0.6c-1,8.7-7.9,14.1-17.9,14.1   c-9,0-19.4-6.1-19.4-23.2c0-16.9,9.7-22.9,18.8-22.9c7.1,0,16,2.3,17.4,13.5l0.1,0.6l7.4-1.4l-0.1-0.5   c-1.2-12.5-10.1-19.4-24.9-19.4c-16.6,0-26.9,11.5-26.9,30.1C1144.6,166.7,1158.7,174.7,1171.9,174.8L1171.9,174.8z"></path>
	<polygon class="st0" points="1255.1,173.8 1255.1,166.6 1221.9,166.6 1221.9,146.6 1249.7,146.6 1249.7,139.4 1221.9,139.4    1221.9,122.4 1255.1,122.4 1255.1,115.3 1214.1,115.3 1214.1,173.8  "></polygon>
</g>
</svg>
